<?xml version="1.0" encoding="utf-8"?>
<!-- Generator: Adobe Illustrator 24.0.1, SVG Export Plug-In . SVG Version: 6.00 Build 0)  -->
<svg version="1.1" xmlns="http://www.w3.org/2000/svg" xmlns:xlink="http://www.w3.org/1999/xlink" x="0px" y="0px"
	 viewBox="0 0 64 64" style="enable-background:new 0 0 64 64;" xml:space="preserve">
<style type="text/css">
	.st0{display:none;}
	.st1{display:inline;}
	.st2{fill:none;}
	.st3{fill:none;stroke:#00FFFF;stroke-width:3;stroke-miterlimit:10;}
	.st4{fill:#00FFFF;}
	.st5{fill:none;stroke:#00FFFF;stroke-miterlimit:10;}
	.st6{display:inline;fill:#1E2121;}
	.st7{display:inline;fill:none;stroke:#00FFFF;stroke-width:0.25;stroke-miterlimit:10;}
	.st8{display:inline;fill:#00FFFF;}
	.st9{display:inline;fill:none;stroke:#00FFFF;stroke-width:2;stroke-miterlimit:10;}
	.st10{opacity:0.74;}
	.st11{fill:none;stroke:#00FFFF;stroke-width:0.75;stroke-miterlimit:10;}
	.st12{fill:#00FFFF;stroke:#00FFFF;stroke-width:0.75;stroke-miterlimit:10;}
	.st13{fill:#00FFFF;stroke:#00FFFF;stroke-width:2;stroke-miterlimit:10;}
	.st14{fill:#00FFFF;stroke:#00FFFF;stroke-width:0.5;stroke-miterlimit:10;}
</style>
<g id="Capa_1" class="st0">
	<g id="Capa_1_1_" class="st1">
		<g>
			<path class="st2" d="M41.5,56.5"/>
		</g>
	</g>
	<g id="Capa_2_1_" class="st1">
	</g>
	<g id="Capa_3" class="st1">
		<g>
			<ellipse class="st3" cx="33" cy="19.9" rx="16.2" ry="16.9"/>
			<g>
				<path class="st4" d="M43.4,34.8c-13,18.2-19.5,0-19.5,0l7.8,15.6L43.4,34.8z"/>
				<path class="st4" d="M43.4,34.8c-0.3,0.4-0.5,0.9-0.9,1.4c-0.3,0.5-0.7,0.9-1,1.4c-0.7,0.9-1.4,1.7-2.2,2.5
					c-0.4,0.4-0.8,0.7-1.3,1.1c-0.5,0.3-0.9,0.7-1.4,0.9c-1,0.6-2.1,1-3.3,1.2c-1.2,0.1-2.4-0.1-3.5-0.6c-1-0.5-2-1.3-2.7-2.1
					c-1.5-1.7-2.6-3.7-3.4-5.8l0.3-0.1c0.7,1.3,1.3,2.6,2,3.9l2.1,3.8c1.4,2.6,2.7,5.2,4,7.7l-0.9-0.1c2-2.7,4.1-5.4,6.2-7.9
					C39.6,39.6,41.6,37.2,43.4,34.8z M43.4,34.9c-2.1,2.8-4,5.5-5.8,8.2c-1.8,2.7-3.6,5.2-5.5,7.7l-0.5,0.7l-0.4-0.8
					c-1.3-2.6-2.5-5.2-3.8-7.9l-1.8-4c-0.6-1.3-1.2-2.6-1.9-3.9l0.3-0.1c0.8,2,2,4,3.5,5.5c0.8,0.7,1.7,1.4,2.6,1.8s2,0.5,3,0.4
					s2-0.5,3-1c0.5-0.2,0.9-0.6,1.4-0.8c0.4-0.3,0.9-0.7,1.3-1c0.8-0.7,1.6-1.5,2.3-2.3c0.4-0.4,0.8-0.8,1.1-1.2
					C42.6,35.7,43,35.3,43.4,34.9z"/>
			</g>
			<g>
				<path class="st4" d="M25.1,43.9c0-0.1-0.2-0.1-0.3-0.1c-0.1,0-0.3,0.1-0.4,0.2c-0.3,0.1-0.5,0.3-0.8,0.5c-0.5,0.3-1,0.7-1.4,1.2
					c-0.9,0.8-1.7,1.7-2.4,2.7c-0.7,1-1.1,2.1-1.5,3.2c-0.4,1.1-0.5,2.2-0.3,3.5L18,55c-0.7-1.1-0.9-2.5-0.6-3.8
					c0.3-1.3,1-2.4,1.8-3.4c0.8-1,1.7-1.9,2.7-2.6c0.5-0.4,1-0.7,1.6-1c0.3-0.1,0.6-0.3,0.9-0.4c0.1,0,0.3-0.1,0.5-0.1
					C24.9,43.7,25.2,43.7,25.1,43.9L25.1,43.9z"/>
			</g>
			<g>
				<path class="st4" d="M40.8,43.9c1.3,0.6,2.6,1.3,3.7,2.4c0.5,0.5,1.1,1.1,1.4,1.8c0.3,0.7,0.4,1.6,0.1,2.3H46
					c-0.3-0.7-0.6-1.3-0.9-1.9c-0.3-0.6-0.7-1.2-1.1-1.7c-0.4-0.5-0.9-1-1.5-1.5C42,44.8,41.4,44.4,40.8,43.9L40.8,43.9z"/>
			</g>
			<circle class="st5" cx="33.7" cy="10.8" r="1.3"/>
			<g>
				<path class="st4" d="M17.4,32c1.9,1.8,3.4,3.7,4.8,5.8c1.4,2,2.7,4.2,3.6,6.5c0.9,2.3,1.5,4.9,1.2,7.4c-0.1,1.2-0.5,2.5-1,3.6
					c-0.6,1.1-1.3,2.1-2.1,2.9c0.7-1,1.3-2,1.7-3.1c0.4-1.1,0.5-2.3,0.5-3.4c-0.1-2.3-0.9-4.5-2-6.5c-1.1-2-2.6-3.8-4.1-5.5
					c-1.6-1.7-3.3-3.3-5.1-4.6L17.4,32z"/>
			</g>
			<g>
				<path class="st4" d="M51.2,36.3c-1.8,1.3-3.5,2.9-5.1,4.6c-1.6,1.7-3,3.5-4.2,5.5c-1.1,2-2,4.2-2,6.5c0,1.2,0.1,2.3,0.5,3.4
					c0.4,1.1,1,2.2,1.7,3.1c-0.8-0.9-1.6-1.8-2.2-2.9c-0.5-1.1-0.9-2.3-1-3.6c-0.3-2.5,0.3-5.1,1.2-7.4c0.9-2.3,2.2-4.5,3.6-6.5
					c1.5-2,3-3.9,4.8-5.8L51.2,36.3z"/>
			</g>
		</g>
	</g>
</g>
<g id="Capa_5" class="st0">
	<rect x="-3.3" y="-4.4" class="st6" width="78" height="78"/>
</g>
<g id="Capa_6" class="st0">
	<line class="st7" x1="29.9" y1="13.9" x2="54.1" y2="38.1"/>
	<line class="st7" x1="29.9" y1="13.9" x2="53.3" y2="28.5"/>
	<line class="st7" x1="29.9" y1="13.9" x2="62.3" y2="25"/>
	<line class="st7" x1="29.9" y1="13.9" x2="55.4" y2="16.6"/>
	<line class="st7" x1="29.9" y1="13.9" x2="63.9" y2="9.7"/>
	<line class="st7" x1="29.9" y1="13.9" x2="53.3" y2="5.4"/>
	<line class="st7" x1="29.9" y1="13.9" x2="58.6" y2="-4.7"/>
	<line class="st7" x1="29.9" y1="13.9" x2="43.6" y2="-0.3"/>
	<line class="st7" x1="29.9" y1="13.9" x2="47.5" y2="-15.4"/>
	<line class="st7" x1="29.9" y1="13.9" x2="36.5" y2="-6.3"/>
	<line class="st7" x1="29.9" y1="13.9" x2="32.9" y2="-20.2"/>
	<line class="st7" x1="29.9" y1="13.9" x2="25.2" y2="-20"/>
	<line class="st7" x1="29.9" y1="13.9" x2="17.7" y2="-18"/>
	<line class="st7" x1="29.9" y1="13.9" x2="10.8" y2="-14.5"/>
	<line class="st7" x1="29.9" y1="13.9" x2="4.9" y2="-9.4"/>
	<line class="st7" x1="29.9" y1="13.9" x2="0.3" y2="-3.2"/>
	<line class="st7" x1="29.9" y1="13.9" x2="-2.8" y2="3.9"/>
	<line class="st7" x1="29.9" y1="13.9" x2="-4.2" y2="11.5"/>
	<line class="st7" x1="29.9" y1="13.9" x2="-3.9" y2="19.3"/>
	<line class="st7" x1="29.9" y1="13.9" x2="-1.8" y2="26.7"/>
	<line class="st7" x1="29.9" y1="13.9" x2="1.9" y2="33.5"/>
	<line class="st7" x1="29.9" y1="13.9" x2="7" y2="39.3"/>
</g>
<g id="Capa_1_copia" class="st0">
	<g id="Capa_1_3_" class="st1">
		<g>
			<path class="st2" d="M41.5,56.5"/>
		</g>
	</g>
	<g id="Capa_2_2_" class="st1">
	</g>
	<path class="st8" d="M33.6,3.3c-9,0-14.2,8.3-14.2,17.7c0,4.5,1.5,8.6,3.9,11.8c0.2,0.3,0.5,0.7,0.8,1c2.5,2.9,5.8,4.7,9.1,4.7
		c2.2,0,5-1.6,7.5-4.2c0.1-0.1,0.2-0.2,0.3-0.3c3.1-3.3,5.6-8,5.9-13.1C47.3,11,42.5,3.3,33.6,3.3z M30.6,32h-1.4V8h1.4V32z"/>
	<g class="st1">
		<path class="st4" d="M43.4,34.8c-13,18.2-19.5,0-19.5,0l7.8,15.6L43.4,34.8z"/>
		<path class="st4" d="M43.4,34.8c-0.3,0.4-0.5,0.9-0.9,1.4c-0.3,0.5-0.7,0.9-1,1.4c-0.7,0.9-1.4,1.7-2.2,2.5
			c-0.4,0.4-0.8,0.7-1.3,1.1c-0.5,0.3-0.9,0.7-1.4,0.9c-1,0.6-2.1,1-3.3,1.2c-1.2,0.1-2.4-0.1-3.5-0.6c-1-0.5-2-1.3-2.7-2.1
			c-1.5-1.7-2.6-3.7-3.4-5.8l0.1-0.3c0.7,1.3,1.5,2.7,2.2,4l2.1,3.8c1.4,2.6,2.7,5.2,4,7.7l-0.9-0.1c2-2.7,4.1-5.4,6.2-7.9
			C39.6,39.6,41.6,37.2,43.4,34.8z M43.4,34.9c-2.1,2.8-4,5.5-5.8,8.2c-1.8,2.7-3.6,5.2-5.5,7.7l-0.5,0.7l-0.4-0.8
			c-1.3-2.6-2.5-5.2-3.8-7.9l-1.8-4c-0.6-1.3-1.2-2.6-1.9-3.9v-0.5c0.8,2,2.2,4.4,3.8,5.9c0.8,0.7,1.7,1.4,2.6,1.8s2,0.5,3,0.4
			s2-0.5,3-1c0.5-0.2,0.9-0.6,1.4-0.8c0.4-0.3,0.9-0.7,1.3-1c0.8-0.7,1.6-1.5,2.3-2.3c0.4-0.4,0.8-0.8,1.1-1.2
			C42.6,35.7,43,35.3,43.4,34.9z"/>
	</g>
	<g class="st1">
		<path class="st4" d="M23.6,44.5c-0.5,0.3-1,0.7-1.4,1.1c-0.9,0.8-1.7,1.7-2.3,2.7c-0.7,1-1.1,2.1-1.5,3.2
			c-0.4,1.1-0.5,2.2-0.3,3.5L18,55c-0.7-1.1-0.9-2.5-0.6-3.8c0.3-1.3,1-2.4,1.8-3.4c0.8-1,1.7-1.9,2.7-2.6c0.5-0.4,1-0.7,1.6-1
			C23.5,44.3,23.6,44.4,23.6,44.5z"/>
	</g>
	<g class="st1">
		<path class="st4" d="M46.1,41c-1.1,1.2-2.2,2.5-3.1,3.9c0.6,0.4,1.2,0.9,1.8,1.4c0.5,0.5,1.1,1.1,1.4,1.8c0.3,0.7,0.4,1.6,0.1,2.3
			h-0.1c-0.3-0.7-0.6-1.3-0.9-1.9c-0.3-0.6-0.6-1.2-1.1-1.7c-0.4-0.5-0.9-1-1.5-1.5c-0.3,0.4-0.5,0.8-0.7,1.2c-1.1,2-2,4.2-2,6.5
			c0,1.2,0.1,2.3,0.5,3.4c0.4,1.1,1,2.1,1.7,3.1c-0.8-0.9-1.6-1.8-2.1-2.9c-0.5-1.1-0.9-2.3-1-3.6c-0.3-2.5,0.3-5.1,1.2-7.4
			c0.9-2.3,2.2-4.5,3.6-6.5c1.4-2,2.9-3.8,4.6-5.6l-7.8,0.6c0.1-0.1,0.2-0.2,0.3-0.3l7.8-0.5l2.6,3C49.4,37.7,47.7,39.3,46.1,41z"/>
	</g>
</g>
<g id="Capa_3_1_" class="st0">
</g>
<g id="Capa_4" class="st0">
	<g class="st1">
		<path class="st4" d="M27.1,51.7c-0.1,1.2-0.5,2.5-1,3.6c-0.6,1.1-1.3,2.1-2.1,2.9c0.7-1,1.3-2,1.7-3.1c0.4-1.1,0.5-2.3,0.5-3.4
			c-0.1-2.3-0.9-4.5-2-6.5c-0.1-0.2-0.3-0.5-0.4-0.7c0-0.1-0.1-0.2-0.2-0.2c-1-1.6-2.2-3.1-3.6-4.6c-1.6-1.7-3.3-3.3-5.1-4.6l2.6-3
			l5.8,0.7c0.2,0.3,0.5,0.7,0.8,1l-6-1.1c1.6,1.7,3,3.3,4.2,5.2c1.4,2,2.7,4.2,3.6,6.5C26.8,46.7,27.3,49.2,27.1,51.7z"/>
	</g>
</g>
<g id="Capa_7" class="st0">
	<path class="st9" d="M24.6,41l-3.9,2.2c0,0-11.4-24.9-11.1-34.1C10.4-11.8,21.8,25.1,24.6,41z"/>
	<polyline class="st9" points="20.8,43.3 20.8,43.7 20.5,43.9 20.4,44.3 20.9,44.6 21.1,44.6 21.3,44.9 21.1,45.2 20.9,45.5 
		21.4,45.8 21.9,45.2 25.8,43 25.8,42.6 25.8,42.2 25.5,42 24.9,41.5 25,41.2 24.9,41.1 24.7,41.1 24.5,41.1 	"/>
	<g class="st1">
		<path class="st4" d="M25.3,42.4c-0.6,0.5-1.2,0.9-1.8,1.2c-0.6,0.4-1.2,0.7-1.9,1c0.6-0.5,1.2-0.9,1.8-1.2
			C24.1,43.1,24.7,42.7,25.3,42.4z"/>
	</g>
	<g class="st1">
		<path class="st4" d="M24.5,41.7c-0.5,0.4-1,0.8-1.6,1.2c-0.6,0.3-1.1,0.7-1.7,1c0.5-0.4,1-0.8,1.6-1.2
			C23.3,42.3,23.9,41.9,24.5,41.7z"/>
	</g>
	<path class="st8" d="M22.7,45.1c-1,2.1-1.9,4.3-2.1,6.4c-0.1,1,0.1,2,0.6,2.7c0.6,0.7,1.4,1.1,2.4,1.4c1,0.3,2.2,0.5,3.3,0.7
		c1.1,0.2,2.3,0.4,3.4,0.4c1.1,0,2.3,0,3.4-0.2c0.6-0.1,1.1-0.2,1.6-0.4c0.5-0.2,1.1-0.4,1.4-0.7l-0.2,0.3c0-0.6,0.5-1.1,0.6-1.6
		c0.1-0.6,0.3-1.1,0.6-1.6c0.3-0.5,0.5-1.1,1.2-1.5c0.7-0.3,1.4-0.4,2.1-0.3l-0.9,1.3c-0.2-0.3-0.6-0.7-1-0.9
		c0.7-0.7,1.7-1.2-1.3-0.5c-0.5,0-0.9,0-1.4,0.1c-0.5,0.1-0.9,0.3-1.4,0.6l0,0c-1,0.5-1.9-0.6-1.4-1.5v0c0.5-0.8,1-1.7,1.5-2.5l0,0
		l0.4-0.4c0.1,0,0.2,0.1,0.2-0.2c0,0,0,0.1,0,0.1c0,0,0.5-0.3,0.4-0.4c-0.2-0.1-0.7-0.8-0.9-0.9c-0.8-0.5-1.8-0.9-2.8-1.3
		c-1-0.4-2.3-0.5-3.4-0.8c-1.1-0.4-2.2-0.4-3.3-0.8l0-0.2c1.1,0.1-0.4,0,0.8,0.2c1.1,0.1,3.5,0.5,4.6,0.7c0,0,2.1,0.6,2.1,0.6
		c1.1,0.3,0.7,0.1,1.8,0.7c0.6,0.3,0.7,0.1,1.2,1.1c0.1,0.2,0.7,0.9,0.7,1.2c0,0.3-0.2,0.5-0.3,0.7c-3.1,1-3.6,4.7-0.9,2.1l-0.4,0.7
		c-0.3,0.5,1.1-1.1,0.8-0.6c-0.3,0.5,1,0.5,0.6,0.1l0.8-0.2c0.3-0.1-0.1-0.3,0.2-0.5c0.3-0.1,0-0.1,0.3-0.2c0.7-0.2,0.4-0.1,1.1,0
		c0.7,0.1,0.6-0.1,1.2,0.3c0.6,0.4,1.2,0.9,1.6,1.6l0.8,1.7l-1.6-1c0,0-0.1,0-0.1,0c-0.4,0-0.8,0.6-1.2,0.7
		c-0.3,0.1-0.7,0.4-0.9,0.7c-0.6,0.7-1,1.7-1.2,2.6l-0.1,0.3l-0.1,0.1c-0.6,0.4-1.2,0.5-1.8,0.6c-0.6,0.2-1.2,0.2-1.8,0.3
		c-1.2,0.2-2.3,0.2-3.5,0.3c-1.2,0-2.4,0.1-3.5,0.1c-0.6,0-1.2,0-1.8,0c-0.6,0-1.2-0.1-1.8-0.2c-1.2-0.2-2.6-0.8-3.4-2
		c-0.9-1.2-1-2.7-0.8-3.9c0.2-1.3,0.7-2.4,1.3-3.4c0.6-1,1.3-2,2.1-2.9L22.7,45.1z"/>
	<g class="st1">
		<path class="st4" d="M22.8,45.8c-0.3,0.6-0.6,1.2-0.8,1.8c-0.2,0.6-0.4,1.3-0.4,1.9c-0.1,0.7,0,1.3,0.2,1.9c0.2,0.6,0.6,1.2,1,1.7
			c-0.5-0.5-0.9-1-1.2-1.6c-0.2-0.6-0.3-1.3-0.3-2C21.5,48.1,22,46.8,22.8,45.8z"/>
	</g>
	<g class="st1">
		<path class="st4" d="M23.9,44.7c-0.3,1.3-0.6,2.7-0.6,4c0,1.4,0.1,2.7,0.8,3.9c0.3,0.6,0.7,1.1,1.3,1.5c0.5,0.4,1.2,0.7,1.8,0.8
			c1.3,0.3,2.7,0.3,4.1,0.1c-1.3,0.3-2.7,0.4-4.1,0.1c-0.7-0.2-1.3-0.4-1.9-0.8c-0.6-0.4-1-1-1.4-1.6c-0.6-1.3-0.8-2.7-0.7-4
			C23.2,47.4,23.4,46,23.9,44.7z"/>
	</g>
	<g class="st1">
		<path class="st4" d="M25.3,43.6c0.1,1,0.2,2,0.4,3c0.2,1,0.4,2,0.7,2.9c0.3,0.9,0.8,1.8,1.4,2.6c0.7,0.7,1.6,1.2,2.6,1.1
			c-0.5,0.1-1,0-1.5-0.1c-0.5-0.2-0.9-0.5-1.3-0.8c-0.7-0.7-1.2-1.7-1.5-2.6C25.5,47.6,25.3,45.6,25.3,43.6z"/>
	</g>
	<g class="st1">
		<path class="st4" d="M24.5,44.3c0,0.9,0,1.9,0.1,2.8c0,0.5,0.1,0.9,0.1,1.4c0.1,0.5,0.1,0.9,0.3,1.4c-0.5-0.8-0.6-1.8-0.7-2.7
			C24.3,46.2,24.3,45.3,24.5,44.3z"/>
	</g>
	<g class="st1">
		<path class="st4" d="M24.8,42.8c0,0.9,0,1.9,0.1,2.8c0,0.5,0.1,0.9,0.1,1.4c0.1,0.5,0.1,0.9,0.3,1.4c-0.5-0.8-0.6-1.8-0.7-2.7
			C24.6,44.7,24.6,43.7,24.8,42.8z"/>
	</g>
	<path class="st8" d="M23.8,44.4l-0.3,0.8c-0.1,0.3-0.3,0.9-0.3,1.2c-0.2,0.7-0.3,1.8-0.4,2.6c0-1,0.2-1.8,0.3-2.5
		C23.2,45.7,23.4,45,23.8,44.4z"/>
	<path class="st8" d="M23.5,43.2L23.2,44c-0.1,0.3-0.3,0.9-0.3,1.2c-0.2,0.7-0.3,1.8-0.4,2.6c0-1,0.2-1.8,0.3-2.5
		C22.9,44.5,23.1,43.8,23.5,43.2z"/>
	<path class="st8" d="M24.7,43.7l-0.3,0.8c-0.1,0.3-0.3,0.9-0.3,1.2c-0.2,0.7-0.3,1.8-0.4,2.6c0-1,0.2-1.8,0.3-2.5
		C24.1,45,24.3,44.3,24.7,43.7z"/>
	<g class="st1">
		<path class="st4" d="M26,42.3c0,0.9,0,1.9,0.1,2.8c0,0.5,0.1,0.9,0.1,1.4c0.1,0.5,0.1,0.9,0.3,1.4C26.1,47,26,46,25.9,45.1
			C25.8,44.1,25.9,43.2,26,42.3z"/>
	</g>
	<g class="st1">
		<path class="st4" d="M23.1,45.5c-0.2,1.4-0.5,2.8-0.6,4.2c-0.1-0.7-0.1-1.4,0-2.2C22.7,46.9,22.8,46.2,23.1,45.5z"/>
	</g>
	<path class="st8" d="M26.3,43.4c0.1,0.3,0,0.5,0,0.8c0,0.3,0.3,0.7,0.3,1c-0.1-0.3-0.4-0.7-0.4-1C26.2,43.9,26.2,43.7,26.3,43.4z"
		/>
	<path class="st8" d="M25.5,43.5c0.1,0.3,0.2,0.5,0.2,0.8c0,0.3,0.1,1,0.1,1.2c-0.1-0.3-0.1-1-0.1-1.2C25.6,44,25.4,43.8,25.5,43.5z
		"/>
	<path class="st8" d="M26.3,43.4c0.4,0.3,0.1,0.5,0.4,0.8c0.3,0.4,0.7,1.6,1.1,1.9c0.1,0.5,1.2,0.7,2.4,1.3l1.7,1.2
		c-2-2.6-3.6-1.5-4.2-2.2c-0.3-0.4-0.6-1.5-0.9-1.8C26.5,44.3,26.5,43.9,26.3,43.4L26.3,43.4z"/>
	<path class="st8" d="M52.2,37.5C52.2,37.5,52.2,37.5,52.2,37.5c0-0.5,0.5-5.2,4.5-5.9c0,0,0.1,0,0.1,0c2.3-0.3,2.8,3.1,0.6,3.5
		C56.2,35.4,54.5,36,52.2,37.5z"/>
	<path class="st8" d="M46.7,51.7c0,0,3.6-5.3,7.7-6.5c1.9-0.6,2.8,0.1,3.2,0.9c0.5,0.9-0.1,2.1-1.1,2.3
		C55.2,48.5,49.4,49.4,46.7,51.7z"/>
	<path class="st8" d="M38,45.8c0,0,0-2.7,0.5-3.7c0.2-0.5,0.4-0.3,0.5,0c0.1,0.3,0.1,0.9-0.1,1.1C38.7,43.4,38.3,44.5,38,45.8z"/>
	<path class="st8" d="M40.9,48c0,0,3.1-0.5,2.9-3.3c-0.1-1,0.1-2.4-1.1-2c-0.7,0.2-1.1,1-1.1,1.7C41.6,45.4,41.5,46.7,40.9,48z"/>
</g>
<g id="Capa_8" class="st0">
</g>
<g id="Capa_10" class="st0">
</g>
<g id="Capa_9" class="st0">
	<g class="st1">
		<g class="st10">
			<g id="XMLID_1_">
				<g>
					<path class="st4" d="M64.4,27.9l-0.3,0.3l-17,17H0.4L0.6,45L16.5,29h0.1L64.4,27.9z M46.9,44.9l16.7-16.7l-46.9,1.1L1.1,44.9
						H46.9z"/>
					<polygon class="st4" points="63.6,28.2 46.9,44.9 1.1,44.9 16.7,29.3 					"/>
				</g>
				<g>
					<polygon class="st11" points="47,45.2 0.4,45.2 0.6,45 16.5,29 16.6,29 64.4,27.9 64.1,28.2 					"/>
					<polygon class="st11" points="1.1,44.9 46.9,44.9 63.6,28.2 16.7,29.3 					"/>
				</g>
			</g>
		</g>
		<g>
			<path class="st12" d="M47,47.4H0.4l0.3-0.3l15.9-15.9l0.1,0l47.8-1.1l-0.3,0.3L47,47.4z M1.1,47.1h45.8l16.7-16.7l-46.9,1.1
				L1.1,47.1z"/>
		</g>
		<g>
			<path class="st12" d="M47,49.6H0.4l0.3-0.3l15.9-15.9l0.1,0l47.8-1.1l-0.3,0.3L47,49.6z M1.1,49.3h45.8l16.7-16.7l-46.9,1.1
				L1.1,49.3z"/>
		</g>
		<g>
			
				<image style="overflow:visible;" width="102" height="86" xlink:href="671BD1E85B74207A.png"  transform="matrix(1 0 0 1 -12.035 -6.3167)">
			</image>
		</g>
		<g>
			<path class="st4" d="M24.9,40.3l-0.5-0.2c-0.7-0.3-1-1.2-0.7-1.9l11.3-22c0.3-0.7,1-2.7,1.7-2.3l0.5,0.2c0.7,0.3-0.3,2.1-0.7,2.9
				l-9.7,22.7C26.5,40.3,25.6,40.7,24.9,40.3z"/>
			<polygon class="st4" points="25.8,38 24.2,38 23.4,39.4 24.2,40.8 25.8,40.8 26.6,39.4 			"/>
			<path class="st4" d="M24.8,39.2l-1.1,1.9c-0.1,0.1,0,0.2,0.1,0.3l0.2,0.1c0.1,0.1,0.2,0,0.3-0.1l1.1-1.9c0.1-0.1,0-0.2-0.1-0.3
				l-0.2-0.1C25,39,24.9,39.1,24.8,39.2z"/>
		</g>
	</g>
</g>
<g id="Capa_11" class="st0">
	<g class="st1">
		<path class="st4" d="M29.4,42.7c-0.9-0.5-1.2-0.4-1.4-0.6L27.9,42c-1.7-3.5-1.3-10.9-1.3-11.3l1.2,0.9c0,0.1-0.5,6.6,1,9.9
			c0.5,0.5,0.8,1.2,1.5,1.5L29.4,42.7z"/>
	</g>
	<g class="st1">
		<path class="st4" d="M35.9,38.2c0,0.1-0.1,0.1-0.1,0.2l-1.2,1.3c1.3-3.4,0.9-9,0.9-9l1-0.9C36.6,30,37.2,34.6,35.9,38.2z"/>
	</g>
	<g class="st1">
		<path class="st4" d="M20.3,37.1l-1.6,0.9c0.9-1.7,6.6-4.4,8.5-5l0,0.3c0.1,0.9-0.4,1.8-1.3,2.1C23.7,36.2,20.6,36.6,20.3,37.1z"/>
	</g>
	<g class="st1">
		<g>
			<path class="st4" d="M47,43.9c-0.8-2.1-3.3-6.1-3.3-6.1c-0.7-1-4.8-2-7.2-2.3l0.3-2.5c1.2,0.1,7.3,1,9,3.4
				c0.1,0.2,2.7,4.3,3.6,6.6L47,43.9z"/>
		</g>
	</g>
	<g class="st1">
		<path class="st4" d="M39.1,56.8l1.9-13.2l17.5-0.8l-1.3,12.9L39.1,56.8z M41.7,44.3L40,56l16.6-1l1.1-11.4L41.7,44.3z"/>
	</g>
	<g class="st1">
		<path class="st4" d="M49,63H30.7v-1.2h-1l9.7-5.7l0.4,0.6l-7.4,4.3h16.3l8.6-6.4v2.2L49,63z M31.4,62.3h17.3l7.8-5.9v-0.3L49,61.8
			H31.4V62.3z"/>
	</g>
	<g class="st1">
		<polygon class="st4" points="48.9,59.4 48.8,59.2 51.4,57.5 53.7,56.3 53.8,56.5 49.8,58.8 		"/>
	</g>
	<g class="st1">
		<polygon class="st4" points="40.5,59.6 40.3,59.4 43,57.7 45.3,56.5 45.4,56.7 41.4,59 		"/>
	</g>
	<g class="st1">
		<polygon class="st4" points="46.6,59.4 46.5,59.2 49.1,57.5 51.4,56.3 51.5,56.5 47.5,58.8 		"/>
	</g>
	<g class="st1">
		<polygon class="st4" points="43.6,60.4 43.4,60.2 47.7,57.4 50.2,56.2 50.3,56.4 46.2,58.7 		"/>
	</g>
	<g class="st1">
		<path class="st4" d="M37,60.7l-0.1-0.2l4.2-3.2l3.7-1.2l-5,2.9L37,60.7z M41.1,57.5L39,59.2l0.6-0.3l3-1.7L41.1,57.5z"/>
	</g>
	<g class="st1">
		<polygon class="st4" points="55.2,53.4 55,53.4 56,44.6 56.3,44.6 		"/>
	</g>
	<g class="st1">
		<polygon class="st4" points="53.9,53.3 53.7,53.3 54.4,47.3 54.6,47.3 		"/>
	</g>
	<g class="st1">
		<polygon class="st4" points="52.5,53.3 52.2,53.3 52.4,51.5 52.7,51.5 		"/>
	</g>
	<g class="st1">
		<rect x="51.2" y="51.9" class="st4" width="0.2" height="1.2"/>
	</g>
	<g class="st1">
		<polygon class="st4" points="52,49.8 51.7,49.8 51.9,45.9 52.2,45.9 		"/>
	</g>
	<g class="st1">
		<polygon class="st4" points="53,49.3 52.7,49.3 53,46.2 53.3,46.2 		"/>
	</g>
	<g class="st1">
		<polygon class="st4" points="45,45.7 45,45.4 49.8,45.4 49.8,45.6 		"/>
	</g>
	<g class="st1">
		<polygon class="st4" points="49.7,48.6 49.4,48.6 49.7,45.5 49.9,45.5 		"/>
	</g>
	<g class="st1">
		<polygon class="st4" points="45.5,49 45.2,49 45.6,46.2 45.8,46.2 		"/>
	</g>
	<g class="st1">
		<rect x="45.3" y="47.8" transform="matrix(0.1327 -0.9912 0.9912 0.1327 -7.2701 87.522)" class="st4" width="2.2" height="0.3"/>
	</g>
	<g class="st1">
		<polygon class="st4" points="47.4,49 47.1,49 47.4,47 47.7,47.1 		"/>
	</g>
	<g class="st1">
		<polygon class="st4" points="43.5,51.1 43.5,50.8 51.3,50.6 51.3,50.8 		"/>
	</g>
	<g class="st1">
		
			<rect x="44" y="51.4" transform="matrix(0.9992 -3.903273e-02 3.903273e-02 0.9992 -1.9748 1.8939)" class="st4" width="7.1" height="0.3"/>
	</g>
	<g class="st1">
		<rect x="44.5" y="52.4" class="st4" width="5.7" height="0.2"/>
	</g>
	<g class="st1">
		<rect x="45.5" y="53" class="st4" width="3.3" height="0.2"/>
	</g>
	<g class="st1">
		<polygon class="st4" points="43.6,49.5 43.4,49.5 43.5,48.6 43.8,48.7 		"/>
	</g>
	<g class="st1">
		<rect x="42.2" y="45" transform="matrix(0.7071 -0.7071 0.7071 0.7071 -19.5872 43.2163)" class="st4" width="0.3" height="0.5"/>
	</g>
	<g class="st1">
		<path class="st4" d="M19.5,50.5c-2,1-3.2-0.4-3.5-0.5l-0.2-0.5c-0.2-0.4-0.3-0.8-0.3-1.2L15,45.6c0-0.7,0.5-0.9,1.2-0.9l0.4,0.6
			l0.7,1.3c5.6,0.3,5.8,1.2,6,1.7c0.1,0.3,0.1,1-0.8,1.5C21.6,50.4,20.5,50.5,19.5,50.5z"/>
	</g>
	<g class="st1">
		<path class="st4" d="M17.4,48c-0.5-0.4-1-0.9-1.4-1.3l-1.1-1.5l-2.3-3.1L10.3,39l-1.1-1.5c-0.3-0.6-0.6-1.2-0.8-1.8
			c0.5,0.4,1,0.9,1.4,1.3l1.1,1.5l2.3,3.1l2.3,3.1l1.1,1.5C16.8,46.8,17.1,47.4,17.4,48z"/>
	</g>
	<ellipse class="st8" cx="29.2" cy="8.1" rx="0.3" ry="0.4"/>
</g>
<g id="Capa_12" class="st0">
	<path class="st9" d="M41.4,17c0,5.9-2.2,11-5.3,13.7c-1.5,1.2-3.2,2-5,2c-1.3,0-2.6-0.4-3.7-1c0,0,0,0-0.1,0
		c-3.8-2.3-6.6-8-6.6-14.6c0-8.7,4.6-15.7,10.4-15.7C36.8,1.3,41.4,8.4,41.4,17z"/>
</g>
<g id="Capa_13">
	<g>
		<path class="st13" d="M38,59.2c2.2,0,15,0.3,20.5,0.4c0.8,0,1.2-1,0.5-1.5L40.8,43.7c-0.2-0.2-0.3-0.4-0.3-0.7V33
			c0-0.7,0.6-1.2,1.2-1.2l0,0c0.5,0,0.9,0.4,0.9,0.9v10.3c0,0.3,0.1,0.5,0.3,0.7l18.9,15c0.2,0.2,0.3,0.4,0.3,0.7v2.5
			c0,0.5-0.4,0.9-0.9,0.9H35.9c-0.8,0-1.2-1-0.5-1.5l2.1-1.7C37.6,59.3,37.8,59.2,38,59.2z"/>
		<path class="st13" d="M33.6,36.7c-0.2,0.1-0.4,0.1-0.5,0.1l-2-0.4l24.3-12l0.6,1.3L33.6,36.7z"/>
	</g>
	<rect x="48.8" y="11.5" class="st14" width="1.4" height="16.3"/>
	<g>
		<path class="st4" d="M16.4,64l-8.3,0c-0.6,0-1-0.4-1-1v0c0-0.6,0.4-1,1-1l8.3,0c3,0,5.5-2.4,5.6-5.4c0.1-2.4,0-4.1-0.1-5.1
			c0-0.5-0.4-0.8-0.8-0.9c-1.1-0.2-2.9-0.1-4.4,0c-1.2,0.1-2.5,0.1-3.8,0.1c-4.2,0-4.8-3.6-4.8-7.8l-2.8-9.7c0-0.6,0.4-1,1-1h0
			c0.6,0,1.1,0.6,1.1,1.1l2,9.6c0,3.1,0.4,5.8,3.5,5.8c1.2,0,2.4,0,3.6-0.1c3.1-0.1,5.5-0.2,6.7,0.8c0.3,0.3,0.9,0.8,0.7,7.3
			C23.9,60.7,20.5,64,16.4,64z M21.9,50.6L21.9,50.6L21.9,50.6z"/>
	</g>
	<g>
		<g>
			<polygon class="st4" points="49.3,19.7 48.9,20 48.9,20 49.3,19.7 			"/>
			<polygon class="st4" points="48.2,20.8 47.5,21.5 47.5,21.5 48.2,20.7 			"/>
			<polygon class="st4" points="46.8,22.3 46.1,23 46,22.9 46.7,22.2 			"/>
			<polygon class="st4" points="45.4,23.8 44.7,24.5 44.6,24.4 45.3,23.7 			"/>
			<polygon class="st4" points="44,25.3 43.3,26 43.2,25.8 43.9,25.1 			"/>
			<polygon class="st4" points="42.6,26.7 41.9,27.5 41.7,27.3 42.4,26.6 			"/>
			<path class="st4" d="M41.2,28.2c-0.2,0.2-0.5,0.5-0.7,0.7l-0.2-0.2c0.2-0.3,0.5-0.5,0.7-0.7L41.2,28.2z"/>
			<polygon class="st4" points="39.7,29.7 39,30.4 38.9,30.3 39.6,29.5 			"/>
			<polygon class="st4" points="38.3,31.1 37.9,31.4 37.9,31.4 38.2,31.1 			"/>
		</g>
	</g>
	<g>
		<g>
			<polygon class="st4" points="49.3,19.7 48.8,19.9 48.8,19.9 49.3,19.7 			"/>
			<polygon class="st4" points="47.9,20.5 46.9,21 46.9,20.9 47.8,20.4 			"/>
			<polygon class="st4" points="46,21.5 45,22 44.9,21.9 45.9,21.4 			"/>
			<polygon class="st4" points="44,22.6 43.1,23.1 43,22.9 43.9,22.4 			"/>
			<polygon class="st4" points="42.1,23.6 41.1,24.1 41,23.9 42,23.4 			"/>
			<polygon class="st4" points="40.1,24.6 39.7,24.8 39.7,24.8 40.1,24.5 			"/>
		</g>
	</g>
	<g>
		<g>
			<polygon class="st4" points="49.3,19.7 48.8,19.8 48.8,19.7 49.3,19.7 			"/>
			<polygon class="st4" points="47.8,20 46.8,20.2 46.7,20.1 47.8,19.9 			"/>
			<polygon class="st4" points="45.8,20.3 44.8,20.5 44.7,20.4 45.7,20.2 			"/>
			<polygon class="st4" points="43.7,20.7 42.7,20.9 42.7,20.7 43.7,20.6 			"/>
			<polygon class="st4" points="41.7,21.1 40.7,21.3 40.7,21.1 41.7,20.9 			"/>
			<polygon class="st4" points="39.7,21.5 38.7,21.7 38.7,21.4 39.7,21.2 			"/>
			<path class="st4" d="M37.7,21.8c-0.3,0.1-0.7,0.1-1,0.2l0-0.2c0.3-0.1,0.7-0.1,1-0.2L37.7,21.8z"/>
			<polygon class="st4" points="35.7,22.2 34.7,22.3 34.6,22.2 35.7,22 			"/>
			<polygon class="st4" points="33.7,22.5 33.2,22.5 33.2,22.5 33.6,22.4 			"/>
		</g>
	</g>
	<g>
		<g>
			<polygon class="st4" points="49.3,19.7 48.8,19.6 48.8,19.6 49.3,19.7 			"/>
			<polygon class="st4" points="47.8,19.5 46.8,19.4 46.8,19.3 47.8,19.4 			"/>
			<polygon class="st4" points="45.9,19.3 44.9,19.2 44.9,19 45.9,19.1 			"/>
			<polygon class="st4" points="43.9,19 43,18.9 43,18.7 44,18.8 			"/>
			<polygon class="st4" points="42,18.8 41,18.6 41,18.4 42,18.5 			"/>
			<polygon class="st4" points="40.1,18.4 39.6,18.3 39.6,18.3 40.1,18.3 			"/>
		</g>
	</g>
	<g>
		<g>
			<polygon class="st4" points="49.3,19.7 48.8,19.5 48.8,19.4 49.3,19.7 			"/>
			<polygon class="st4" points="47.9,19 47,18.6 47,18.5 47.9,19 			"/>
			<polygon class="st4" points="46,18.2 45.1,17.7 45.2,17.6 46.1,18.1 			"/>
			<polygon class="st4" points="44.2,17.3 43.3,16.8 43.3,16.7 44.2,17.1 			"/>
			<polygon class="st4" points="42.3,16.4 41.4,16 41.5,15.8 42.4,16.2 			"/>
			<polygon class="st4" points="40.5,15.5 39.6,15.1 39.7,14.9 40.6,15.3 			"/>
			<path class="st4" d="M38.6,14.6c-0.3-0.1-0.6-0.3-0.9-0.5l0.1-0.2c0.3,0.1,0.6,0.3,0.9,0.4L38.6,14.6z"/>
			<polygon class="st4" points="36.8,13.7 35.9,13.2 36,13.1 36.9,13.5 			"/>
			<polygon class="st4" points="35,12.8 34.6,12.5 34.6,12.5 35,12.7 			"/>
		</g>
	</g>
	<g>
		<g>
			<polygon class="st4" points="49.3,19.7 48.9,19.3 48.9,19.3 49.3,19.7 			"/>
			<polygon class="st4" points="48.1,18.6 47.3,17.9 47.4,17.8 48.2,18.6 			"/>
			<polygon class="st4" points="46.6,17.2 45.8,16.5 45.9,16.3 46.7,17.1 			"/>
			<polygon class="st4" points="45,15.7 44.3,15 44.4,14.8 45.2,15.6 			"/>
			<polygon class="st4" points="43.5,14.3 42.8,13.5 42.9,13.4 43.7,14.1 			"/>
			<polygon class="st4" points="42,12.8 41.7,12.4 41.7,12.4 42.1,12.7 			"/>
		</g>
	</g>
	<g>
		<g>
			<polygon class="st4" points="49.3,19.7 49,19.2 49,19.2 49.3,19.7 			"/>
			<polygon class="st4" points="48.5,18.3 48,17.4 48.1,17.4 48.6,18.3 			"/>
			<polygon class="st4" points="47.5,16.5 47,15.6 47.2,15.6 47.6,16.5 			"/>
			<polygon class="st4" points="46.6,14.7 46.1,13.8 46.2,13.8 46.7,14.7 			"/>
			<polygon class="st4" points="45.6,13 45.1,12.1 45.3,12 45.8,12.9 			"/>
			<polygon class="st4" points="44.6,11.2 44.1,10.3 44.3,10.1 44.8,11 			"/>
			<path class="st4" d="M43.6,9.3c-0.2-0.3-0.3-0.6-0.5-0.9l0.2-0.1c0.2,0.3,0.3,0.6,0.5,0.9L43.6,9.3z"/>
			<polygon class="st4" points="42.7,7.5 42.2,6.6 42.4,6.5 42.9,7.4 			"/>
			<polygon class="st4" points="41.8,5.7 41.6,5.2 41.6,5.2 41.9,5.7 			"/>
		</g>
	</g>
	<g>
		<g>
			<polygon class="st4" points="49.3,19.7 49.2,19.2 49.2,19.2 49.3,19.7 			"/>
			<polygon class="st4" points="49,18.2 48.8,17.2 48.9,17.2 49,18.2 			"/>
			<polygon class="st4" points="48.6,16.2 48.4,15.2 48.5,15.1 48.7,16.1 			"/>
			<polygon class="st4" points="48.2,14.2 48,13.1 48.2,13.1 48.4,14.1 			"/>
			<polygon class="st4" points="47.8,12.1 47.7,11.1 47.9,11.1 48,12.1 			"/>
			<polygon class="st4" points="47.5,10.1 47.3,9.1 47.5,9.1 47.7,10.1 			"/>
			<path class="st4" d="M47.1,8.1c-0.1-0.3-0.1-0.7-0.2-1l0.2,0c0.1,0.3,0.1,0.7,0.2,1L47.1,8.1z"/>
			<polygon class="st4" points="46.8,6.1 46.6,5.1 46.8,5.1 47,6.1 			"/>
			<polygon class="st4" points="46.5,4.1 46.4,3.6 46.4,3.6 46.5,4.1 			"/>
		</g>
	</g>
</g>
</svg>
