<?xml version="1.0" encoding="utf-8"?>
<!-- Generator: Adobe Illustrator 24.0.1, SVG Export Plug-In . SVG Version: 6.00 Build 0)  -->
<svg version="1.1" xmlns="http://www.w3.org/2000/svg" xmlns:xlink="http://www.w3.org/1999/xlink" x="0px" y="0px"
	 viewBox="0 0 64 64" style="enable-background:new 0 0 64 64;" xml:space="preserve">
<style type="text/css">
	.st0{display:none;}
	.st1{display:inline;}
	.st2{fill:none;}
	.st3{fill:none;stroke:#00FFFF;stroke-width:3;stroke-miterlimit:10;}
	.st4{fill:#00FFFF;}
	.st5{fill:none;stroke:#00FFFF;stroke-miterlimit:10;}
	.st6{display:inline;fill:#333333;}
	.st7{display:inline;fill:#00FFFF;}
	.st8{fill:none;stroke:#00FFFF;stroke-width:0.25;stroke-miterlimit:10;}
	.st9{fill:none;stroke:#00FFFF;stroke-width:0.5;stroke-miterlimit:10;}
	.st10{fill:none;stroke:#00FFFF;stroke-width:2;stroke-miterlimit:10;}
</style>
<g id="Capa_1" class="st0">
	<g class="st1">
		<path class="st2" d="M41.5,56.5"/>
	</g>
</g>
<g id="Capa_2" class="st0">
</g>
<g id="Capa_3" class="st0">
	<g class="st1">
		<ellipse class="st3" cx="33" cy="19.88" rx="16.25" ry="16.9"/>
		<g>
			<path class="st4" d="M43.4,34.83c-13,18.2-19.5,0-19.5,0l7.8,15.6L43.4,34.83z"/>
			<path class="st4" d="M43.43,34.78c-0.3,0.4-0.54,0.92-0.89,1.44c-0.34,0.52-0.66,0.91-1,1.37c-0.69,0.87-1.43,1.71-2.24,2.5
				c-0.39,0.41-0.85,0.74-1.28,1.11c-0.47,0.31-0.91,0.68-1.43,0.94c-0.98,0.58-2.09,1.04-3.27,1.16c-1.17,0.14-2.4-0.07-3.45-0.58
				c-1.05-0.52-1.95-1.27-2.71-2.1c-1.5-1.7-2.57-3.68-3.42-5.75l0.3-0.13c0.66,1.3,1.33,2.58,2.03,3.86l2.07,3.84
				c1.37,2.57,2.69,5.16,4.02,7.74l-0.89-0.08c1.97-2.68,4.09-5.38,6.21-7.91C39.6,39.64,41.6,37.23,43.43,34.78z M43.37,34.87
				c-2.07,2.75-3.97,5.55-5.76,8.19c-1.78,2.67-3.57,5.17-5.49,7.69l-0.52,0.68l-0.37-0.76c-1.26-2.62-2.55-5.23-3.78-7.86
				l-1.83-3.96c-0.6-1.32-1.23-2.64-1.87-3.94l0.3-0.13c0.77,2.04,1.95,3.98,3.51,5.47c0.78,0.74,1.66,1.38,2.63,1.77
				c0.97,0.39,2.01,0.53,3.03,0.41c1.02-0.12,2.04-0.46,2.96-0.99c0.48-0.23,0.91-0.57,1.36-0.85c0.42-0.34,0.86-0.65,1.27-1.01
				c0.83-0.7,1.61-1.47,2.35-2.29c0.36-0.4,0.78-0.82,1.09-1.2C42.59,35.72,43,35.35,43.37,34.87z"/>
		</g>
		<g>
			<path class="st4" d="M25.15,43.94c-0.04-0.12-0.21-0.11-0.34-0.09c-0.14,0.02-0.28,0.08-0.41,0.15
				c-0.27,0.12-0.53,0.29-0.78,0.45c-0.5,0.34-0.96,0.73-1.4,1.15c-0.89,0.81-1.69,1.73-2.35,2.72c-0.66,1-1.12,2.09-1.47,3.17
				c-0.37,1.09-0.46,2.23-0.29,3.47L18,54.99c-0.71-1.06-0.88-2.49-0.58-3.76c0.27-1.3,1.03-2.39,1.79-3.38
				c0.79-0.99,1.69-1.87,2.68-2.63c0.5-0.37,1.02-0.72,1.57-1.02c0.28-0.14,0.56-0.29,0.86-0.38c0.15-0.05,0.3-0.1,0.47-0.11
				c0.14-0.01,0.39-0.01,0.45,0.2L25.15,43.94z"/>
		</g>
		<g>
			<path class="st4" d="M40.82,43.88c1.35,0.57,2.63,1.35,3.72,2.4c0.53,0.53,1.11,1.08,1.4,1.83c0.28,0.74,0.37,1.58,0.11,2.32
				h-0.1c-0.3-0.71-0.57-1.3-0.91-1.88c-0.35-0.56-0.65-1.18-1.09-1.73c-0.43-0.55-0.94-1.05-1.47-1.52
				c-0.53-0.48-1.1-0.93-1.71-1.33L40.82,43.88z"/>
		</g>
		<circle class="st5" cx="33.65" cy="10.77" r="1.3"/>
		<g>
			<path class="st4" d="M17.39,32c1.85,1.85,3.39,3.73,4.84,5.78c1.43,2.04,2.69,4.22,3.62,6.55c0.9,2.33,1.5,4.87,1.21,7.39
				c-0.14,1.25-0.48,2.47-1.02,3.57c-0.57,1.1-1.31,2.07-2.15,2.93c0.71-0.97,1.3-2.02,1.68-3.13c0.36-1.12,0.52-2.28,0.49-3.42
				c-0.06-2.3-0.92-4.49-2.02-6.49c-1.14-2-2.57-3.83-4.15-5.52c-1.57-1.67-3.34-3.29-5.09-4.61L17.39,32z"/>
		</g>
		<g>
			<path class="st4" d="M51.19,36.35c-1.75,1.32-3.52,2.94-5.09,4.61c-1.58,1.69-3.01,3.53-4.15,5.52c-1.11,2-1.97,4.19-2.02,6.49
				c-0.03,1.15,0.12,2.31,0.49,3.42c0.39,1.11,0.98,2.15,1.68,3.13c-0.83-0.86-1.58-1.83-2.15-2.93c-0.54-1.11-0.89-2.32-1.02-3.57
				c-0.29-2.52,0.31-5.06,1.21-7.39c0.93-2.33,2.19-4.51,3.62-6.55c1.45-2.05,2.99-3.93,4.84-5.78L51.19,36.35z"/>
		</g>
	</g>
</g>
<g id="Capa_5" class="st0">
	<rect x="-3" y="-2" class="st6" width="78" height="71"/>
</g>
<g id="Capa_4" class="st0">
	<g class="st1">
		<path class="st4" d="M44.49,36.31l-6.36,6.36l5.78,4.61l-0.01,0.05c0.1,0.03,0.04-0.03,0.27,0.16l-0.19,1.04l-6.65-6.65
			l-7.15,7.15L3.15,4.51l41.34,30.21V36.31z"/>
		<path class="st4" d="M30.08,49.83L1.42,2.63l43.57,31.84v2.05l-6.11,6.11l5.84,4.65l-0.41,2.28c-0.51-0.45-6.41-6.53-6.92-6.85
			l0.04-0.04l-0.09-0.09L30.08,49.83z M4.88,6.39l25.4,41.84l7.05-7.05l0.79,0.79l5.87-5.87v-1.13L4.88,6.39z"/>
	</g>
	<g class="st1">
		<polygon class="st4" points="53.55,11.96 47.78,28.71 47.08,28.25 46.6,30.86 3.15,2.92 		"/>
		<path class="st4" d="M46.96,31.69L0.77,1.99l53.44,9.58l-6.17,17.92l-0.61-0.4L46.96,31.69z M5.53,3.86l40.72,26.18l0.48-2.62
			l0.79,0.52l5.37-15.6L5.53,3.86z"/>
	</g>
	<g class="st1">
		<polygon class="st4" points="44.99,50.22 43.63,48.89 43.99,48.52 43.99,47.44 44.99,47.44 		"/>
	</g>
	<g class="st1">
		<rect x="43.99" y="36.31" class="st4" width="1" height="6.21"/>
	</g>
	<g class="st1">
		<g>
			<polygon class="st4" points="44.49,45.7 44.49,45.85 44.46,45.85 			"/>
		</g>
		<g>
			<path class="st4" d="M48.46,32.34l-3.38,16.81c-0.14-0.02,0.19,0.02-1.18-0.23c0.05-0.26-0.01,0.11,0.29-1.54
				c0.27,0.05,0.14,0.03,0.89,0.18l3.1-15.41L48.46,32.34z"/>
		</g>
	</g>
	<g class="st1">
		<g>
			<path class="st4" d="M44.46,45.85l-0.27,1.53c-0.05,0-0.11-0.01-0.29-0.05c0.05-0.24,0.07-0.38,0.29-1.54
				C44.25,45.81,44.18,45.79,44.46,45.85z"/>
		</g>
		<g>
			<polygon class="st4" points="44.49,45.7 44.49,45.85 44.46,45.85 			"/>
		</g>
	</g>
	<g class="st1">
		<g>
			<path class="st4" d="M48.46,30.75L48.46,30.75c-0.21,4.56-2.12,10.21-3.39,16.81c0.04,0-0.2-0.03-0.89-0.17l0.27-1.53h0.03V45.7
				l-0.03,0.16l-0.27-0.06c0.29-3.51,2.2-13.96,2.89-17.54l0.7,0.46c0.23-0.38,0.46-0.76,0.68-1.14
				C48.46,28.63,48.46,29.69,48.46,30.75z"/>
		</g>
		<g>
			<path class="st4" d="M44.49,42.52c-0.01,0.67,0.1,1.39-0.3,3.28l-0.29-0.05L44.49,42.52z"/>
		</g>
		<g>
			<polygon class="st4" points="44.49,45.7 44.49,45.85 44.46,45.85 			"/>
		</g>
	</g>
	<path class="st7" d="M44.67,48.52c-0.49-0.38-6.42-5.12-7.29-5.8l7.65-7.65L44.67,48.52z M38.88,42.63l4.82,3.84l0.26-8.92
		L38.88,42.63z"/>
	<g class="st1">
		
			<rect x="45.98" y="29.14" transform="matrix(0.1161 -0.9932 0.9932 0.1161 12.8904 73.7682)" class="st4" width="3.83" height="1"/>
	</g>
</g>
<g id="Capa_6">
	<circle class="st8" cx="32" cy="55.5" r="2"/>
	<rect x="25.5" y="4.5" class="st9" width="13" height="1"/>
	<path class="st10" d="M43.67,59.72H20.33c-2.11,0-3.83-1.72-3.83-3.83V5.55c0-2.11,1.72-3.83,3.83-3.83h23.34
		c2.11,0,3.83,1.72,3.83,3.83v50.34C47.5,58,45.78,59.72,43.67,59.72z"/>
</g>
<g id="Capa_7">
	<path class="st8" d="M18,55V8.68C18,6.1,20.1,4,22.68,4H24"/>
	<rect x="22" y="9" class="st4" width="16" height="3"/>
	<rect x="27" y="17" class="st4" width="16" height="4"/>
	<rect x="22" y="17" class="st4" width="3" height="12"/>
	<rect x="27" y="25" class="st4" width="2" height="3"/>
	<rect x="34" y="23" class="st4" width="7" height="1"/>
	<rect x="30" y="23" class="st4" width="2" height="11"/>
	<rect x="22" y="30" class="st4" width="19" height="7"/>
	<rect x="22" y="39" class="st4" width="21" height="10"/>
</g>
<g id="Capa_8">
</g>
</svg>
